<svg id="Layer_1" data-name="Layer 1" xmlns="http://www.w3.org/2000/svg" viewBox="0 0 271.18 76.32"><defs><style>.cls-1,.cls-2{fill:#fff;}.cls-2{font-size:58.13px;font-family:League Gothic;}</style></defs><title>rocking-cpa-logo</title><path class="cls-1" d="M42.32,0V14.11H5.67V0A6.8,6.8,0,0,0,0,6.7V67.31a6.8,6.8,0,0,0,6.8,6.8H41.19a6.8,6.8,0,0,0,6.8-6.8V6.7A6.8,6.8,0,0,0,42.32,0Zm-26,67.44H9.89V61h6.47v6.47Zm0-11.72H9.89V49.26h6.47v6.47Zm0-11.2H9.89V38.06h6.47v6.47ZM27.14,67.44H20.67V61h6.47v6.47Zm0-11.72H20.67V49.26h6.47v6.47Zm0-11.2H20.67V38.06h6.47v6.47Zm11,22.92H31.63V61H38.1v6.47Zm0-11.72H31.63V49.26H38.1v6.47Zm0-11.2H31.63V38.06H38.1v6.47ZM41.88,34H5.35V19.37H41.88V34Z"/><text class="cls-2" transform="translate(61.63 61.79)">ROCKING CPA</text></svg>