<?xml version="1.0" encoding="utf-8"?>
<!-- Generator: Adobe Illustrator 19.2.1, SVG Export Plug-In . SVG Version: 6.00 Build 0)  -->
<svg version="1.1" id="Layer_1" xmlns="http://www.w3.org/2000/svg" xmlns:xlink="http://www.w3.org/1999/xlink" x="0px" y="0px"
	 viewBox="0 0 19.5 35" style="enable-background:new 0 0 19.5 35;" xml:space="preserve">
<style type="text/css">
	.st0{fill:#4C8EB4;}
</style>
<title>calculator</title>
<rect x="5.3" y="15.1" class="st0" width="2.3" height="4.1"/>
<path class="st0" d="M19.4,2.7c0.1-1.4-0.9-2.6-2.2-2.7c-0.2,0-0.3,0-0.5,0H6.6C4.6,0,3,1.6,3,3.5l0,0v7.6h0.8V3.5
	c0-1.5,1.2-2.7,2.7-2.7l0,0h7.8c-0.4,0.8-0.6,1.8-0.5,2.7v7.6h0.8V5.1h3.7c0.2,0,0.5-0.1,0.6-0.2c0.2-0.2,0.4-0.5,0.3-0.9
	C19.4,3.6,19.3,3.1,19.4,2.7z M18.6,4c0,0.1,0,0.2-0.1,0.3c0,0-0.1,0-0.1,0h-3.7V3.5c0-0.5,0-1,0.1-1.5c0.2-0.8,1-1.4,1.8-1.2
	c0.9-0.1,1.8,0.5,1.9,1.4c0,0.2,0,0.3,0,0.5l0,0C18.7,3.1,18.6,3.6,18.6,4L18.6,4z"/>
<path class="st0" d="M8.7,8h4c0.2,0,0.4-0.2,0.4-0.4c0-0.2-0.2-0.4-0.4-0.4h-4V8z"/>
<rect x="6.6" y="7.2" class="st0" width="1.6" height="0.9"/>
<path class="st0" d="M4.9,8H6V7.1H4.9c-0.2,0-0.4,0.2-0.4,0.4C4.5,7.8,4.7,8,4.9,8L4.9,8z"/>
<rect x="12.4" y="15.1" class="st0" width="2.3" height="4.1"/>
<path class="st0" d="M4.5,4.3c0,0.2,0.2,0.4,0.4,0.4c0,0,0,0,0,0h2V3.8h-2C4.7,3.8,4.5,4,4.5,4.3C4.5,4.3,4.5,4.3,4.5,4.3z"/>
<path class="st0" d="M15.9,7.2v5.3H2.1V7.2C0.9,7.4,0,8.4,0,9.7v22.8C0,33.9,1.1,35,2.5,35h12.9c1.4,0,2.5-1.1,2.6-2.5V9.7
	C18,8.4,17.1,7.4,15.9,7.2z M6.1,32.5H3.7v-2.4h2.4V32.5z M6.1,28.1H3.7v-2.4h2.4V28.1z M6.1,23.9H3.7v-2.4h2.4V23.9z M10.1,32.5
	H7.8v-2.4h2.4L10.1,32.5L10.1,32.5z M10.1,28.1H7.8v-2.4h2.4L10.1,28.1L10.1,28.1z M10.1,23.9H7.8v-2.4h2.4L10.1,23.9L10.1,23.9z
	 M14.3,32.5h-2.4v-2.4h2.4L14.3,32.5L14.3,32.5z M14.3,28.1h-2.4v-2.4h2.4L14.3,28.1L14.3,28.1z M14.3,23.9h-2.4v-2.4h2.4L14.3,23.9
	L14.3,23.9z M15.7,19.9H2v-5.5h13.7L15.7,19.9L15.7,19.9z"/>
<rect x="7.5" y="3.8" class="st0" width="3" height="0.8"/>
<path class="st0" d="M13.1,4.3c0-0.2-0.2-0.4-0.4-0.4c0,0,0,0,0,0h-1.7v0.9h1.7C13,4.7,13.1,4.5,13.1,4.3
	C13.1,4.3,13.1,4.3,13.1,4.3z"/>
<rect x="8.8" y="15.1" class="st0" width="2.3" height="4.1"/>
</svg>
