<?xml version="1.0" encoding="utf-8"?>
<!-- Generator: Adobe Illustrator 19.2.1, SVG Export Plug-In . SVG Version: 6.00 Build 0)  -->
<svg version="1.1" id="Capa_1" xmlns="http://www.w3.org/2000/svg" xmlns:xlink="http://www.w3.org/1999/xlink" x="0px" y="0px"
	 viewBox="0 0 799.9 799.9" style="enable-background:new 0 0 799.9 799.9;" xml:space="preserve">
<style type="text/css">
	.st0{fill-rule:evenodd;clip-rule:evenodd;fill:#4C8EB4;}
	.st1{fill-rule:evenodd;clip-rule:evenodd;fill:#30617D;}
	.st2{fill-rule:evenodd;clip-rule:evenodd;fill:#254659;}
	.st3{fill-rule:evenodd;clip-rule:evenodd;}
	.st4{fill-rule:evenodd;clip-rule:evenodd;fill:#B0CAD9;}
	.st5{fill-rule:evenodd;clip-rule:evenodd;fill:#D1E2EB;}
	.st6{fill-rule:evenodd;clip-rule:evenodd;fill:#617F91;}
	.st7{fill-rule:evenodd;clip-rule:evenodd;fill:#8097A6;}
	.st8{fill-rule:evenodd;clip-rule:evenodd;fill:#FFFFFF;}
	.st9{fill-rule:evenodd;clip-rule:evenodd;fill:#E6E6E6;}
	.st10{fill-rule:evenodd;clip-rule:evenodd;fill:#B3B3B3;}
	.st11{fill-rule:evenodd;clip-rule:evenodd;fill:#886734;}
	.st12{fill-rule:evenodd;clip-rule:evenodd;fill:#694F28;}
	.st13{fill-rule:evenodd;clip-rule:evenodd;fill:#BD9D6E;}
	.st14{fill-rule:evenodd;clip-rule:evenodd;fill:#4D4D4D;}
	.st15{fill-rule:evenodd;clip-rule:evenodd;fill:#CCCCCC;}
	.st16{fill-rule:evenodd;clip-rule:evenodd;fill:#9ACAE6;}
	.st17{fill-rule:evenodd;clip-rule:evenodd;fill:#87BBDA;}
	.st18{fill-rule:evenodd;clip-rule:evenodd;fill:#73ACCD;}
	.st19{fill-rule:evenodd;clip-rule:evenodd;fill:#609DC1;}
	.st20{fill:#30617D;}
	.st21{fill-rule:evenodd;clip-rule:evenodd;fill:#F85A68;}
	.st22{fill-rule:evenodd;clip-rule:evenodd;fill:#C62229;}
	.st23{fill-rule:evenodd;clip-rule:evenodd;fill:#D0D0D0;}
	.st24{fill-rule:evenodd;clip-rule:evenodd;fill:#F5E6B6;}
	.st25{fill-rule:evenodd;clip-rule:evenodd;fill:#FFD800;}
	.st26{fill-rule:evenodd;clip-rule:evenodd;fill:#F0B16C;}
	.st27{fill-rule:evenodd;clip-rule:evenodd;fill:#C78B4C;}
	.st28{fill-rule:evenodd;clip-rule:evenodd;fill:#1E1E1E;}
</style>
<rect y="0" class="st0" width="799.9" height="799.9"/>
<path class="st1" d="M133.2,120.5c44.4,3.7,79.3,40.9,79.3,86.3c0,47.8-38.8,86.6-86.6,86.6c-47.8,0-86.6-38.8-86.6-86.6
	c0-43.7,32.4-79.9,74.5-85.8v-11c0-3.7,3-6.8,6.8-6.8h5.8c3.7,0,6.8,3,6.8,6.8V120.5z"/>
<rect x="101.5" y="307.3" transform="matrix(0.9026 -0.4305 0.4305 0.9026 -197.9534 157.5904)" class="st1" width="295.4" height="417.8"/>
<g>
	<path class="st1" d="M625.2,613.2c-7.2-1.3-35.2-15.1-55.8-21c-20.6-5.9-52.2-9.6-57.9-8.9c-6.8,0.8-7.1,1.3-8.4,6.1
		c-1.3,4.8-1.3,9.2,2.2,11.2c4.5,2.6,3.7,8.5,3.3,25.2c-3.6,6.9-5.5,14.2-6.4,18.8c-1.8,8.8,5.8,14.1,10.8,6.3
		c4.8,8.2,14.1,15.1,32,20c31.3,8.8,46.1-9.6,50.9-15.5c8.5-10.5,9.9-27.2,25.9-23.9c16.1,3.2,11.3,18.8,15.1,31.9
		c2.1,7.3,8.3,30.2,40.7,34.1c18.4,2.3,29.7-0.5,37.3-6.2c1.5,9.2,10.6,7.2,12.4-1.6c0.9-4.6,2-12.1,1.3-19.9
		c6-15.5,7.5-21.2,12.7-21.9c4-0.5,5.7-4.5,6.4-9.5c0.7-4.9,0.6-5.5-5.4-8.8c-5-2.8-35.6-11.6-56.9-14.1
		C666.3,613.2,642.2,616.3,625.2,613.2z"/>
	<g>
		<path class="st2" d="M501.2,577.4c40.4,7.2,179.8,47.3,200.6,56.6c20.7,9.3,17.8,36.6,15.6,47.5c-2.2,10.9-15.7,11.4-12-7.1
			s4.1-28.8-8.6-32.5c-12.7-3.7-184.7-48-196.7-50.8C488.1,588.3,493.2,575.2,501.2,577.4z"/>
		<path class="st2" d="M732,623.6c-40.1-8.9-184.2-25.6-206.9-25c-22.7,0.6-30.5,26.9-32.7,37.8c-2.2,10.9,10.1,16.6,13.8-1.9
			c3.7-18.5,7.3-28.2,20.4-26.7c13.1,1.4,188.9,26.8,201.1,28.9C739.8,638.7,740.1,624.7,732,623.6z"/>
		<path class="st3" d="M674,689.9c28,1.8,37.3-9.6,43.4-25c7.2-18.1,8.5-24.6,14-25.3c4-0.5,5.7-4.5,6.4-9.5
			c0.7-4.9,0.6-5.5-5.4-8.8c-5-2.8-35.6-11.6-56.9-14.1c-0.5-0.1-1-0.1-1.5-0.2v5.1c18.1,2.2,36,7.8,40.5,11.8
			c9.4,8.4,1.3,38.2-10,51.5c-6.3,7.4-18.4,10.2-30.5,9.6V689.9z M615.4,605c-7.2-1.3-35.2-15.1-55.8-21c-3.3-0.9-6.8-1.8-10.5-2.6
			v5.3c18.4,3.9,38.4,11.5,43.4,22.1c7.6,15.9-15.8,46.1-33.1,50.4c-3.1,0.8-6.6,1-10.3,0.9v4.9c21.9,0.9,32.9-12.8,36.9-17.8
			c8.5-10.5,9.9-27.2,25.9-23.9c16.1,3.2,11.3,18.8,15.1,31.9c2.1,7.3,8.3,30.2,40.7,34.1c2.2,0.3,4.3,0.5,6.3,0.6V685
			c-10.5-0.5-20.9-3.5-27.4-8.3c-14.3-10.6-24.2-47.6-11.1-59.3c7.2-6.5,22.9-7.1,38.5-5.2v-5.1C655.2,605.2,631.9,608,615.4,605z
			 M549.1,581.4c-19.5-4.3-42.7-6.8-47.5-6.3c-6.8,0.8-7.1,1.3-8.4,6.1c-1.3,4.8-1.3,9.2,2.2,11.2c4.8,2.8,3.6,9.3,3.2,28.7
			c-0.3,17.7,4.5,32.7,36.5,41.7c5.1,1.4,9.7,2.1,14,2.3v-4.9c-16.8-0.7-38.1-10.2-42.6-24.3c-5.3-16.6-1.3-47.2,10.6-51.3
			c4.6-1.6,17.8-0.8,32,2.3V581.4z"/>
		<path class="st4" d="M517.1,584.4c10.6-3.7,66.4,5.5,75.5,24.4c7.6,15.9-15.8,46.1-33.1,50.4c-16.8,4.2-47.4-6.2-52.9-23.4
			C501.2,619.2,505.2,588.6,517.1,584.4L517.1,584.4z M714.5,624c-8.3-7.5-63.4-20.5-79-6.6c-13.1,11.7-3.2,48.6,11.1,59.3
			c13.9,10.3,46.2,12.5,57.9-1.2C715.8,662.2,723.9,632.4,714.5,624z"/>
		<g>
			<path class="st5" d="M522.7,583.7c17.8-0.5,61.9,8.6,69.8,25.2c5.3,11.1-4.6,29.3-17,40.7L522.7,583.7z"/>
			<path class="st5" d="M645.7,612.7l53.8,67.1c1.9-1.2,3.6-2.6,5-4.3c11.3-13.3,19.4-43,10-51.5
				C707.5,617.7,667.5,607.5,645.7,612.7z"/>
		</g>
		<path class="st6" d="M702,618.2c-14-2.2-30.7-4.5-48-6.8c-4.9,0.4-9.4,1.2-13.1,2.7l0,0l-0.1,0l0,0l-0.1,0l-0.1,0l-0.1,0l0,0
			l-0.1,0l-0.1,0l-0.1,0l0,0l-0.2,0.1l0,0l-0.1,0l-0.1,0l-0.1,0l0,0l-0.1,0l-0.1,0l-0.1,0l0,0l-0.1,0l-0.1,0l-0.1,0l0,0l-0.1,0
			l-0.1,0l0,0l-0.1,0l-0.1,0l0,0l-0.1,0.1l0,0l-0.1,0l-0.1,0l0,0l-0.1,0l-0.1,0l0,0l0,0l-0.1,0l-0.1,0.1l-0.1,0.1l-0.1,0.1l-0.1,0.1
			l0,0l-0.1,0.1l-0.1,0.1l-0.1,0.1l-0.1,0.1l-0.1,0.1l0,0l0,0l-0.1,0.1l-0.1,0.1l0,0l-0.1,0l-0.1,0.1l0,0l0,0l0,0l-0.1,0.1l0,0l0,0
			l-0.1,0.1l-0.1,0.1l0,0l0,0l-0.1,0.1l-0.1,0.1l0,0l-0.1,0.1l-0.1,0.1l-0.1,0l0,0l0,0l-0.1,0.1l0,0l0,0l-0.1,0.1l0,0l-0.2,0.2
			l-0.1,0.1l0,0l0,0l0,0l0,0l-0.1,0.1l0,0l-0.1,0.1l0,0l-0.1,0l0,0l0,0l-0.1,0.1l0,0l-0.1,0.1l0,0l-0.1,0.1l0,0l0,0l-0.1,0.1l0,0
			l-0.1,0.1c-1.6,1.7-2.8,3.8-3.6,6.2c33.3,8.6,61,15.9,65.8,17.3c12.7,3.7,12.3,14,8.6,32.5l0,0c4.8-6,8.9-14.9,11.2-23.7
			c-2.4-7-6.8-13.2-14.8-16.8c-1.2-0.5-2.8-1.2-4.8-1.9c8.8,1.3,16.2,2.4,21.6,3.2c-0.2-4.9-1.5-8.9-4.1-11.2
			C712.6,622.2,708,620.2,702,618.2L702,618.2z M530.8,583.9c13.8,3.4,30,7.6,46.9,12.2c4.4,2.2,8.3,4.8,11.1,7.5h0l0.1,0.1l0,0
			c0.1,0.1,0.2,0.2,0.4,0.4l0,0l0,0l0.1,0.1l0.1,0.1l0,0l0,0.1l0.1,0.1l0.1,0.1l0,0l0.1,0.1l0.1,0.1l0.1,0.1l0,0l0.1,0.1l0.1,0.1
			l0,0l0,0l0.1,0.1l0.1,0.1l0,0l0,0.1l0.1,0.1l0.1,0.1l0,0l0.1,0.1l0.1,0.1l0,0.1l0,0l0.1,0.1l0.1,0.1l0.1,0.1l0.1,0.1l0.1,0.1l0,0
			l0,0.1l0.1,0.1l0.1,0.1l0,0l0.1,0.1l0.1,0.1l0,0.1l0,0l0.1,0.1l0.1,0.1l0,0l0,0l0.1,0.1l0.1,0.1l0,0l0,0.1l0.1,0.1l0,0.1l0,0
			l0.1,0.1l0.1,0.1l0,0l0,0l0,0.1l0,0.1l0,0l0,0.1l0,0.1l0,0.1l0,0l0,0.1l0,0.1l0,0.1l0,0l0,0.1l0.1,0.1l0,0l0.1,0.2l0,0l0,0.1
			l0.1,0.2l0,0.1l0,0l0,0.1l0,0.1l0,0l0,0.1l0,0l0,0.1l0,0l0,0.1l0,0.1l0,0l0,0.1l0,0l0,0.1l0,0l0,0.1l0.1,0.2l0,0.1l0,0l0,0.1
			c0.8,2.2,1.1,4.5,0.9,7.1c-34-4.9-62.4-8.8-67.4-9.4c-13.1-1.4-16.7,8.2-20.4,26.7l0,0.2c-2.1-7.4-2.5-17.2-1.3-26.2
			c4.9-5.6,11.4-9.6,20.2-9.9c1.3,0,3.1,0,5.2,0.1c-8.7-2.2-16-4.1-21.3-5.4c2.1-4.4,4.8-7.6,8.1-8.8
			C519.5,583.6,524.5,583.4,530.8,583.9z"/>
		<g>
			<path class="st7" d="M522.7,583.7l21.2,26.4c12.5,1.7,30.3,4.3,50,7.1c0.2-2.5-0.1-4.9-0.9-7.1l0-0.1l0,0l0-0.1l-0.1-0.2l0-0.1
				l0,0l0-0.1l0,0l0-0.1l0,0l0-0.1l0-0.1l0,0l0-0.1l0,0l0-0.1l0,0l0-0.1l0-0.1l0,0l0-0.1l-0.1-0.2l0-0.1l0,0l-0.1-0.2l0,0l-0.1-0.1
				l0-0.1l0,0l0-0.1l0-0.1l0-0.1l0,0l0-0.1l0-0.1l0-0.1l0,0l0-0.1l0-0.1l0,0l0,0l-0.1-0.1l-0.1-0.1l0,0l0-0.1l-0.1-0.1l0-0.1l0,0
				l-0.1-0.1l-0.1-0.1l0,0l0,0l-0.1-0.1l-0.1-0.1l0,0l0-0.1l-0.1-0.1l-0.1-0.1l0,0l-0.1-0.1l-0.1-0.1l0-0.1l0,0l-0.1-0.1l-0.1-0.1
				l-0.1-0.1l-0.1-0.1l-0.1-0.1l0,0l0-0.1l-0.1-0.1l-0.1-0.1l0,0l-0.1-0.1l-0.1-0.1l0-0.1l0,0l-0.1-0.1l-0.1-0.1l0,0l0,0l-0.1-0.1
				l-0.1-0.1l0,0l-0.1-0.1l-0.1-0.1l-0.1-0.1l0,0l-0.1-0.1l-0.1-0.1l0-0.1l0,0l-0.1-0.1l-0.1-0.1l0,0l0,0c-0.1-0.1-0.2-0.2-0.4-0.4
				l0,0l-0.1-0.1h0c-2.8-2.8-6.6-5.3-11.1-7.5c-16.9-4.6-33.1-8.9-46.9-12.2C527.8,583.7,525,583.6,522.7,583.7z"/>
			<path class="st7" d="M702,618.2c-14-2.2-30.7-4.5-48-6.8c-3,0.2-5.8,0.6-8.3,1.2l15.9,19.8c18.5,4.8,32,8.4,35.3,9.3
				c12.7,3.7,12.3,14,8.6,32.5l0,0c4.8-6,8.9-14.9,11.2-23.7c-2.4-7-6.8-13.2-14.8-16.8c-1.2-0.5-2.8-1.2-4.8-1.9
				c8.8,1.3,16.2,2.4,21.6,3.2c-0.2-4.9-1.5-8.9-4.1-11.2C712.6,622.2,708,620.2,702,618.2z"/>
		</g>
	</g>
</g>
<g>
	<path class="st8" d="M116.1,285.2c47.7,0,86.6-38.9,86.6-86.6S163.8,112,116.1,112s-86.6,38.9-86.6,86.6S68.4,285.2,116.1,285.2z"
		/>
	<path class="st9" d="M116.1,279.9c44.8,0,81.3-36.5,81.3-81.3c0-44.8-36.5-81.3-81.3-81.3c-44.8,0-81.3,36.5-81.3,81.3
		C34.9,243.4,71.4,279.9,116.1,279.9z"/>
	<path class="st8" d="M110.8,95.1h5.8c3.7,0,6.8,3,6.8,6.8v42.6c0,3.7-3,6.8-6.8,6.8h-5.8c-3.7,0-6.8-3-6.8-6.8v-42.6
		C104,98.1,107.1,95.1,110.8,95.1z"/>
	<path class="st9" d="M111.9,98.4h3.7c2.4,0,4.3,1.9,4.3,4.3v40c0,2.4-1.9,4.3-4.3,4.3h-3.7c-2.4,0-4.3-1.9-4.3-4.3v-40
		C107.6,100.4,109.5,98.4,111.9,98.4z"/>
	<path class="st8" d="M116.1,266.8c37.6,0,68.2-30.6,68.2-68.2c0-37.6-30.6-68.2-68.2-68.2S47.9,161,47.9,198.6
		C47.9,236.2,78.6,266.8,116.1,266.8z"/>
	<path class="st10" d="M116.1,260c33.8,0,61.4-27.6,61.4-61.4c0-33.8-27.6-61.4-61.4-61.4c-33.8,0-61.4,27.6-61.4,61.4
		C54.7,232.4,82.3,260,116.1,260z"/>
	<path class="st11" d="M116.1,250.8c28.8,0,52.2-23.5,52.2-52.2c0-28.8-23.5-52.2-52.2-52.2c-28.8,0-52.2,23.5-52.2,52.2
		C63.9,227.4,87.4,250.8,116.1,250.8z"/>
	<path class="st12" d="M116.1,236.3c20.8,0,37.7-17,37.7-37.7c0-20.8-17-37.7-37.7-37.7s-37.7,17-37.7,37.7
		C78.4,219.4,95.3,236.3,116.1,236.3z"/>
	<path class="st13" d="M152.6,169.8c6.3,7.9,10,17.9,10,28.8c0,25.7-20.8,46.4-46.4,46.4c-10.9,0-20.9-3.7-28.8-10
		c7.4,4.8,16.2,7.6,25.6,7.6c26,0,47.2-21.1,47.2-47.2C160.2,186,157.4,177.2,152.6,169.8z"/>
</g>
<g>
	<path class="st1" d="M603.8,368.5l46.4,23.6c8.8,4.5,12.3,15.3,7.9,24.1L594.7,541c-4.5,8.8-15.3,12.3-24.1,7.9l-46.4-23.6
		c-8.8-4.5-12.3-15.3-7.9-24.1l63.4-124.8C584.1,367.5,595,364,603.8,368.5z"/>
	<g>
		<path class="st8" d="M593.9,360.3l46.4,23.6c8.8,4.5,12.3,15.3,7.9,24.1l-63.4,124.8c-4.5,8.8-15.3,12.3-24.1,7.9l-46.4-23.6
			c-8.8-4.5-12.3-15.3-7.9-24.1l63.4-124.8C574.3,359.3,585.1,355.8,593.9,360.3z"/>
		
			<rect x="512.2" y="410.2" transform="matrix(0.4529 -0.8916 0.8916 0.4529 -82.6009 760.9579)" class="st3" width="133.1" height="75.1"/>
		<path class="st10" d="M597.7,373.1l30.1,15.3c0.8,0.4,1.8,0.1,2.2-0.7l0,0c0.4-0.8,0.1-1.8-0.7-2.2l-30.1-15.3
			c-0.8-0.4-1.8-0.1-2.2,0.7v0C596.6,371.6,596.9,372.7,597.7,373.1z"/>
		<polygon class="st14" points="575.4,371.4 582.1,524.1 642.4,405.5 		"/>
		<path class="st10" d="M516.4,507.6l50.8,25.8c1.3,0.6,2.8,0.1,3.5-1.1v0c0.6-1.3,0.1-2.8-1.1-3.5L518.7,503
			c-1.3-0.6-2.8-0.1-3.5,1.1v0C514.6,505.4,515.1,507,516.4,507.6z"/>
		
			<ellipse transform="matrix(0.4529 -0.8916 0.8916 0.4529 -164.9564 767.5587)" class="st8" cx="542.9" cy="518.2" rx="10.1" ry="10.1"/>
		
			<ellipse transform="matrix(0.4529 -0.8916 0.8916 0.4529 -164.9626 767.5414)" class="st10" cx="542.9" cy="518.2" rx="7.1" ry="7.1"/>
	</g>
</g>
<g>
	
		<rect x="91.6" y="299" transform="matrix(0.9026 -0.4305 0.4305 0.9026 -195.3618 152.5206)" class="st8" width="295.4" height="417.8"/>
	
		<rect x="98.5" y="359.4" transform="matrix(0.9026 -0.4305 0.4305 0.9026 -139.7332 108.6615)" class="st15" width="143.4" height="7.4"/>
	
		<rect x="57.5" y="376" transform="matrix(0.9026 -0.4305 0.4305 0.9026 -146.1071 113.6869)" class="st15" width="241.2" height="7.4"/>
	
		<rect x="63.1" y="387.6" transform="matrix(0.9026 -0.4305 0.4305 0.9026 -150.5689 117.2047)" class="st15" width="241.2" height="7.4"/>
	
		<rect x="68.6" y="399.2" transform="matrix(0.9026 -0.4305 0.4305 0.9026 -155.0296 120.7213)" class="st15" width="241.2" height="7.4"/>
	
		<rect x="74.2" y="410.8" transform="matrix(0.9026 -0.4305 0.4305 0.9026 -159.4919 124.2396)" class="st15" width="241.2" height="7.4"/>
	
		<rect x="79.7" y="422.5" transform="matrix(0.9026 -0.4305 0.4305 0.9026 -163.9537 127.7574)" class="st15" width="241.2" height="7.4"/>
	
		<rect x="85.2" y="434.1" transform="matrix(0.9026 -0.4305 0.4305 0.9026 -168.4156 131.2756)" class="st15" width="241.2" height="7.4"/>
	
		<rect x="90.8" y="445.7" transform="matrix(0.9026 -0.4305 0.4305 0.9026 -172.8764 134.7922)" class="st15" width="241.2" height="7.4"/>
	
		<rect x="96.3" y="457.3" transform="matrix(0.9026 -0.4305 0.4305 0.9026 -177.3387 138.3107)" class="st15" width="241.2" height="7.4"/>
	
		<rect x="107.7" y="494.9" transform="matrix(0.9026 -0.4305 0.4305 0.9026 -198.2816 120.9266)" class="st15" width="120.6" height="7.4"/>
	<g>
		
			<ellipse transform="matrix(0.9026 -0.4306 0.4306 0.9026 -180.7904 191.2431)" class="st0" cx="332.1" cy="495.1" rx="31.3" ry="31.3"/>
		<path class="st16" d="M327.9,526.1c-5.3-0.7-10.4-2.8-14.7-6.1l19-24.9L327.9,526.1z"/>
		<path class="st17" d="M313.1,519.9c-3.8-2.9-7-6.8-9.2-11.4c-4.3-9-3.9-19.1,0.2-27.4l28,13.9L313.1,519.9z"/>
		<path class="st18" d="M304.1,481.1c3-6,8-11.2,14.5-14.3l13.5,28.2L304.1,481.1z"/>
		<path class="st19" d="M318.7,466.8l13.5,28.2l10.7-29.4C335.2,462.9,326.6,463.1,318.7,466.8z"/>
	</g>
	<g>
		
			<rect x="152.2" y="587.4" transform="matrix(0.9026 -0.4305 0.4305 0.9026 -231.8705 153.8512)" class="st15" width="143.5" height="3.7"/>
		
			<rect x="140.6" y="539.9" transform="matrix(0.9026 -0.4306 0.4306 0.9026 -234.0419 122.3959)" class="st0" width="25.5" height="76.9"/>
		
			<rect x="173.5" y="554.7" transform="matrix(0.9026 -0.4306 0.4306 0.9026 -230.9999 136.5811)" class="st19" width="25.5" height="47.9"/>
		
			<rect x="203.6" y="557.5" transform="matrix(0.9026 -0.4305 0.4305 0.9026 -225.7457 149.022)" class="st18" width="25.5" height="31.7"/>
		
			<rect x="227.1" y="530.6" transform="matrix(0.9026 -0.4306 0.4306 0.9026 -215.1106 157.2213)" class="st17" width="25.5" height="46.5"/>
		
			<rect x="256.5" y="530.5" transform="matrix(0.9026 -0.4306 0.4306 0.9026 -209.3445 169.2589)" class="st16" width="25.5" height="33.3"/>
		
			<rect x="321.6" y="537.8" transform="matrix(0.9026 -0.4306 0.4306 0.9026 -200.364 193.8356)" class="st15" width="12.9" height="3.7"/>
		
			<rect x="337.4" y="524.2" transform="matrix(0.9026 -0.4305 0.4305 0.9026 -191.7395 204.7519)" class="st15" width="38.3" height="3.7"/>
	</g>
	
		<rect x="161.2" y="608.1" transform="matrix(0.9026 -0.4305 0.4305 0.9026 -242.2961 152.8449)" class="st15" width="110.7" height="7.4"/>
	
		<rect x="166.8" y="619.7" transform="matrix(0.9026 -0.4305 0.4305 0.9026 -246.7577 156.3626)" class="st15" width="110.7" height="7.4"/>
	
		<rect x="172.3" y="631.3" transform="matrix(0.9026 -0.4305 0.4305 0.9026 -251.2195 159.8804)" class="st15" width="110.7" height="7.4"/>
	
		<rect x="177.8" y="642.9" transform="matrix(0.9026 -0.4305 0.4305 0.9026 -255.6812 163.398)" class="st15" width="110.7" height="7.4"/>
	
		<rect x="183.4" y="654.6" transform="matrix(0.9026 -0.4305 0.4305 0.9026 -260.1437 166.9167)" class="st15" width="110.7" height="7.4"/>
	
		<rect x="188.9" y="666.2" transform="matrix(0.9026 -0.4305 0.4305 0.9026 -264.6013 170.4303)" class="st15" width="110.7" height="7.4"/>
	
		<rect x="194.5" y="677.8" transform="matrix(0.9026 -0.4305 0.4305 0.9026 -269.0671 173.9522)" class="st15" width="110.7" height="7.4"/>
	
		<rect x="202.7" y="701.3" transform="matrix(0.9026 -0.4305 0.4305 0.9026 -281.0881 167.8727)" class="st15" width="55.3" height="7.4"/>
	
		<rect x="279" y="551.9" transform="matrix(0.9026 -0.4305 0.4305 0.9026 -206.6281 198.0836)" class="st15" width="110.7" height="7.4"/>
	
		<rect x="284.5" y="563.5" transform="matrix(0.9026 -0.4305 0.4305 0.9026 -211.0908 201.6025)" class="st15" width="110.7" height="7.4"/>
	
		<rect x="290.1" y="575.1" transform="matrix(0.9026 -0.4305 0.4305 0.9026 -215.5526 205.1204)" class="st15" width="110.7" height="7.4"/>
	
		<rect x="295.6" y="586.8" transform="matrix(0.9026 -0.4305 0.4305 0.9026 -220.0135 208.637)" class="st15" width="110.7" height="7.4"/>
	
		<rect x="301.2" y="598.4" transform="matrix(0.9026 -0.4305 0.4305 0.9026 -224.4728 212.1512)" class="st15" width="110.7" height="7.4"/>
	
		<rect x="306.7" y="610" transform="matrix(0.9026 -0.4305 0.4305 0.9026 -228.9377 215.6738)" class="st15" width="110.7" height="7.4"/>
	
		<rect x="312.3" y="621.6" transform="matrix(0.9026 -0.4305 0.4305 0.9026 -233.4001 219.1924)" class="st15" width="110.7" height="7.4"/>
	
		<rect x="319.4" y="640.3" transform="matrix(0.9026 -0.4305 0.4305 0.9026 -242.3392 217.0255)" class="st15" width="77.9" height="7.4"/>
</g>
<g>
	<path class="st20" d="M799.9,397.2L285.8,207.5c-6.7-2.5-10.2-10-7.7-16.7L348.5,0h451.4V397.2z"/>
	<g>
		<path class="st8" d="M799.9,388.5L279.4,196.4c-6.7-2.5-10.2-10-7.7-16.7L338,0h461.9V388.5z"/>
		<path class="st15" d="M799.9,85.7c-0.7-1.2-0.8-2.7-0.3-4.1l0.3-0.9V85.7z"/>
		<path class="st15" d="M786.4,121l13.5,5v29l-22.9-8.4c-2.5-0.9-3.8-3.7-2.9-6.2l6-16.4C781.1,121.3,783.9,120,786.4,121z"/>
		<path class="st15" d="M799.9,188.9l-3.3-1.2c-2.3-0.9-3.6-3.5-2.7-5.8l6-16.3V188.9z"/>
		<path class="st15" d="M795,192.1l5,1.8v29l-14.4-5.3c-2.3-0.9-3.6-3.5-2.7-5.8l6.3-17C790,192.4,792.6,191.2,795,192.1z"/>
		<path class="st15" d="M791.7,27.7l8.3,3v22.1c-0.3,0-0.6-0.1-0.9-0.2l-14.6-5.4c-1.9-0.7-2.9-2.9-2.2-4.8l4.6-12.5
			C787.6,28,789.7,27,791.7,27.7z"/>
		<path class="st15" d="M763.7,17.4l14.6,5.4c1.9,0.7,2.9,2.9,2.2,4.8l-4.6,12.5c-0.7,1.9-2.9,2.9-4.8,2.2l-14.6-5.4
			c-1.9-0.7-2.9-2.9-2.2-4.8l4.6-12.5C759.6,17.7,761.8,16.7,763.7,17.4z"/>
		<path class="st15" d="M735.7,7.1l14.6,5.4c1.9,0.7,2.9,2.9,2.2,4.8l-4.6,12.5c-0.7,1.9-2.9,2.9-4.8,2.2l-14.6-5.4
			c-1.9-0.7-2.9-2.9-2.2-4.8l4.6-12.5C731.6,7.4,733.8,6.4,735.7,7.1z"/>
		<path class="st15" d="M716.5,0l5.8,2.2c1.9,0.7,2.9,2.9,2.2,4.8l-4.6,12.5c-0.7,1.9-2.9,2.9-4.8,2.2l-14.6-5.4
			c-1.9-0.7-2.9-2.9-2.2-4.8L702.6,0H716.5z"/>
		<path class="st15" d="M695.3,0l-3.4,9.1c-0.7,1.9-2.9,2.9-4.8,2.2L672.5,6c-1.9-0.7-2.9-2.9-2.2-4.8l0.4-1.2H695.3z"/>
		<path class="st15" d="M663.2,0c-1,1.1-2.6,1.6-4.1,1l-2.8-1H663.2z"/>
		<path class="st15" d="M781.7,51.2l15,5.5c2.3,0.8,3.5,3.4,2.6,5.7L793,79.7c-0.8,2.3-3.4,3.5-5.7,2.6l-15-5.5
			c-2.3-0.8-3.5-3.4-2.6-5.7l6.3-17.1C776.8,51.6,779.4,50.4,781.7,51.2z"/>
		<path class="st15" d="M751.3,40l15,5.5c2.3,0.8,3.5,3.4,2.6,5.7l-6.3,17.1c-0.8,2.3-3.4,3.5-5.7,2.6l-15-5.5
			c-2.3-0.8-3.5-3.4-2.6-5.7l6.3-17.1C746.5,40.4,749,39.2,751.3,40z"/>
		<path class="st15" d="M721,28.8l15,5.5c2.3,0.8,3.5,3.4,2.6,5.7l-6.3,17.1c-0.8,2.3-3.4,3.5-5.7,2.6l-15-5.5
			c-2.3-0.8-3.5-3.4-2.6-5.7l6.3-17.1C716.1,29.2,718.7,28,721,28.8z"/>
		<path class="st15" d="M690.6,17.6l15,5.5c2.3,0.8,3.5,3.4,2.6,5.7L702,46.1c-0.8,2.3-3.4,3.5-5.7,2.6l-15-5.5
			c-2.3-0.8-3.5-3.4-2.6-5.7l6.3-17.1C685.7,18,688.3,16.8,690.6,17.6z"/>
		<path class="st15" d="M660.3,6.4l15,5.5c2.3,0.8,3.5,3.4,2.6,5.7l-6.3,17.1c-0.8,2.3-3.4,3.5-5.7,2.6l-15-5.5
			c-2.3-0.8-3.5-3.4-2.6-5.7l6.3-17.1C655.4,6.8,658,5.6,660.3,6.4z"/>
		<path class="st15" d="M642.8,0l2.1,0.8c2.3,0.8,3.5,3.4,2.6,5.7l-6.3,17.1c-0.8,2.3-3.4,3.5-5.7,2.6l-15-5.5
			c-2.3-0.8-3.5-3.4-2.6-5.7l5.5-15H642.8z"/>
		<path class="st15" d="M615.5,0l-4.6,12.5c-0.8,2.3-3.4,3.5-5.7,2.6l-15-5.5c-2.3-0.8-3.5-3.4-2.6-5.7l1.4-3.8H615.5z"/>
		<path class="st15" d="M581,0l-0.5,1.3c-0.8,2.3-3.4,3.5-5.7,2.6L564.3,0H581z"/>
		<path class="st15" d="M433.7,0l-4.7,12.9c-0.9,2.5-3.7,3.8-6.2,2.9L385.2,1.9c-1-0.4-1.8-1.1-2.4-1.9H433.7z"/>
		<path class="st15" d="M383.6,6.3l53.8,19.8c2.5,0.9,3.8,3.7,2.9,6.2l-6,16.4c-0.9,2.5-3.7,3.8-6.2,2.9l-53.8-19.8
			c-2.5-0.9-3.8-3.7-2.9-6.2l6-16.4C378.3,6.7,381.1,5.4,383.6,6.3z"/>
		<path class="st15" d="M372.5,36.2l22.3,8.2c2.5,0.9,3.8,3.7,2.9,6.2l-6,16.4c-0.9,2.5-3.7,3.8-6.2,2.9l-22.3-8.2
			c-2.5-0.9-3.8-3.7-2.9-6.2l6-16.4C367.2,36.6,370,35.3,372.5,36.2z"/>
		<path class="st15" d="M494.8,0l-1.1,2.9c-0.9,2.5-3.7,3.7-6.1,2.8L472.2,0H494.8z"/>
		<path class="st15" d="M530,0l-5.3,14.3c-0.9,2.5-3.7,3.7-6.1,2.8l-16.1-5.9c-2.5-0.9-3.7-3.7-2.8-6.1l1.9-5H530z"/>
		<path class="st15" d="M550.7,0l8.2,3c2.5,0.9,3.7,3.7,2.8,6.1l-6.1,16.5c-0.9,2.5-3.7,3.7-6.1,2.8l-16.1-5.9
			c-2.5-0.9-3.7-3.7-2.8-6.1L536.6,0H550.7z"/>
		<path class="st15" d="M573.7,8.5l16.1,5.9c2.5,0.9,3.7,3.7,2.8,6.1l-6.1,16.5c-0.9,2.5-3.7,3.7-6.1,2.8L564.3,34
			c-2.5-0.9-3.7-3.7-2.8-6.1l6.1-16.5C568.5,8.9,571.3,7.6,573.7,8.5z"/>
		<path class="st15" d="M604.7,19.9l16.1,5.9c2.5,0.9,3.7,3.7,2.8,6.1l-6.1,16.5c-0.9,2.5-3.7,3.7-6.1,2.8l-16.1-5.9
			c-2.5-0.9-3.7-3.7-2.8-6.1l6.1-16.5C599.4,20.3,602.2,19,604.7,19.9z"/>
		<path class="st15" d="M635.6,31.3l16.1,5.9c2.5,0.9,3.7,3.7,2.8,6.1l-6.1,16.5c-0.9,2.5-3.7,3.7-6.1,2.8l-16.1-5.9
			c-2.5-0.9-3.7-3.7-2.8-6.1l6.1-16.5C630.4,31.7,633.1,30.4,635.6,31.3z"/>
		<path class="st15" d="M666.5,42.7l16.1,5.9c2.5,0.9,3.7,3.7,2.8,6.1l-6.1,16.5c-0.9,2.5-3.7,3.7-6.1,2.8l-16.1-5.9
			c-2.5-0.9-3.7-3.7-2.8-6.1l6.1-16.5C661.3,43.1,664,41.8,666.5,42.7z"/>
		<path class="st15" d="M697.4,54.1l16.1,5.9c2.5,0.9,3.7,3.7,2.8,6.1l-6.1,16.5c-0.9,2.5-3.7,3.7-6.1,2.8L688,79.7
			c-2.5-0.9-3.7-3.7-2.8-6.1l6.1-16.5C692.2,54.5,695,53.2,697.4,54.1z"/>
		<path class="st15" d="M728.4,65.6l16.1,5.9c2.5,0.9,3.7,3.7,2.8,6.1l-6.1,16.5c-0.9,2.5-3.7,3.7-6.1,2.8L719,91.1
			c-2.5-0.9-3.7-3.7-2.8-6.1l6.1-16.5C723.1,65.9,725.9,64.6,728.4,65.6z"/>
		<path class="st15" d="M759.3,77l16.1,5.9c2.5,0.9,3.7,3.7,2.8,6.1l-6.1,16.5c-0.9,2.5-3.7,3.7-6.1,2.8l-16.1-5.9
			c-2.5-0.9-3.7-3.7-2.8-6.1l6.1-16.5C754.1,77.3,756.8,76.1,759.3,77z"/>
		<path class="st15" d="M790.2,88.4l9.7,3.6v28c-1,0.3-2,0.3-3-0.1l-16.1-5.9c-2.5-0.9-3.7-3.7-2.8-6.1l6.1-16.5
			C785,88.7,787.8,87.5,790.2,88.4z"/>
		<path class="st15" d="M458.6,0l5.1,1.9c2.5,0.9,3.7,3.7,2.8,6.1l-6.1,16.5c-0.9,2.5-3.7,3.7-6.1,2.8l-16.1-5.9
			c-2.5-0.9-3.7-3.7-2.8-6.1L441,0H458.6z"/>
		<path class="st15" d="M478.5,7.4l16.1,5.9c2.5,0.9,3.7,3.7,2.8,6.1L491.3,36c-0.9,2.5-3.7,3.7-6.1,2.8l-16.1-5.9
			c-2.5-0.9-3.7-3.7-2.8-6.1l6.1-16.5C473.3,7.7,476.1,6.4,478.5,7.4z"/>
		<path class="st15" d="M509.4,18.8l16.1,5.9c2.5,0.9,3.7,3.7,2.8,6.1l-6.1,16.5c-0.9,2.5-3.7,3.7-6.1,2.8L500,44.3
			c-2.5-0.9-3.7-3.7-2.8-6.1l6.1-16.5C504.2,19.1,507,17.9,509.4,18.8z"/>
		<path class="st15" d="M540.4,30.2l16.1,5.9c2.5,0.9,3.7,3.7,2.8,6.1l-6.1,16.5c-0.9,2.5-3.7,3.7-6.1,2.8L531,55.7
			c-2.5-0.9-3.7-3.7-2.8-6.1l6.1-16.5C535.1,30.5,537.9,29.3,540.4,30.2z"/>
		<path class="st15" d="M571.3,41.6l16.1,5.9c2.5,0.9,3.7,3.7,2.8,6.1l-6.1,16.5c-0.9,2.5-3.7,3.7-6.1,2.8l-16.1-5.9
			c-2.5-0.9-3.7-3.7-2.8-6.1l6.1-16.5C566.1,42,568.8,40.7,571.3,41.6z"/>
		<path class="st15" d="M602.2,53l16.1,5.9c2.5,0.9,3.7,3.7,2.8,6.1L615,81.6c-0.9,2.5-3.7,3.7-6.1,2.8l-16.1-5.9
			c-2.5-0.9-3.7-3.7-2.8-6.1l6.1-16.5C597,53.4,599.8,52.1,602.2,53z"/>
		<path class="st15" d="M633.2,64.4l16.1,5.9c2.5,0.9,3.7,3.7,2.8,6.1L646,93c-0.9,2.5-3.7,3.7-6.1,2.8l-16.1-5.9
			c-2.5-0.9-3.7-3.7-2.8-6.1l6.1-16.5C627.9,64.8,630.7,63.5,633.2,64.4z"/>
		<path class="st15" d="M664.1,75.8l16.1,5.9c2.5,0.9,3.7,3.7,2.8,6.1l-6.1,16.5c-0.9,2.5-3.7,3.7-6.1,2.8l-16.1-5.9
			c-2.5-0.9-3.7-3.7-2.8-6.1l6.1-16.5C658.9,76.2,661.6,74.9,664.1,75.8z"/>
		<path class="st15" d="M695,87.2l16.1,5.9c2.5,0.9,3.7,3.7,2.8,6.1l-6.1,16.5c-0.9,2.5-3.7,3.7-6.1,2.8l-16.1-5.9
			c-2.5-0.9-3.7-3.7-2.8-6.1l6.1-16.5C689.8,87.6,692.5,86.3,695,87.2z"/>
		<path class="st15" d="M725.9,98.6l16.1,5.9c2.5,0.9,3.7,3.7,2.8,6.1l-6.1,16.5c-0.9,2.5-3.7,3.7-6.1,2.8l-16.1-5.9
			c-2.5-0.9-3.7-3.7-2.8-6.1l6.1-16.5C720.7,99,723.5,97.7,725.9,98.6z"/>
		<path class="st15" d="M756.9,110.1L773,116c2.5,0.9,3.7,3.7,2.8,6.1l-6.1,16.5c-0.9,2.5-3.7,3.7-6.1,2.8l-16.1-5.9
			c-2.5-0.9-3.7-3.7-2.8-6.1l6.1-16.5C751.6,110.4,754.4,109.2,756.9,110.1z"/>
		<path class="st15" d="M452.7,31.8l16.1,5.9c2.5,0.9,3.7,3.7,2.8,6.1l-6.1,16.5c-0.9,2.5-3.7,3.7-6.1,2.8l-16.1-5.9
			c-2.5-0.9-3.7-3.7-2.8-6.1l6.1-16.5C447.5,32.2,450.3,30.9,452.7,31.8z"/>
		<path class="st15" d="M483.7,43.2l16.1,5.9c2.5,0.9,3.7,3.7,2.8,6.1l-6.1,16.5c-0.9,2.5-3.7,3.7-6.1,2.8l-16.1-5.9
			c-2.5-0.9-3.7-3.7-2.8-6.1l6.1-16.5C478.4,43.6,481.2,42.3,483.7,43.2z"/>
		<path class="st15" d="M514.6,54.7l16.1,5.9c2.5,0.9,3.7,3.7,2.8,6.1l-6.1,16.5c-0.9,2.5-3.7,3.7-6.1,2.8l-16.1-5.9
			c-2.5-0.9-3.7-3.7-2.8-6.1l6.1-16.5C509.4,55,512.1,53.7,514.6,54.7z"/>
		<path class="st15" d="M545.5,66.1l16.1,5.9c2.5,0.9,3.7,3.7,2.8,6.1l-6.1,16.5c-0.9,2.5-3.7,3.7-6.1,2.8l-16.1-5.9
			c-2.5-0.9-3.7-3.7-2.8-6.1l6.1-16.5C540.3,66.4,543.1,65.2,545.5,66.1z"/>
		<path class="st15" d="M576.4,77.5l16.1,5.9c2.5,0.9,3.7,3.7,2.8,6.1l-6.1,16.5c-0.9,2.5-3.7,3.7-6.1,2.8L567,103
			c-2.5-0.9-3.7-3.7-2.8-6.1l6.1-16.5C571.2,77.8,574,76.6,576.4,77.5z"/>
		<path class="st15" d="M607.4,88.9l16.1,5.9c2.5,0.9,3.7,3.7,2.8,6.1l-6.1,16.5c-0.9,2.5-3.7,3.7-6.1,2.8l-16.1-5.9
			c-2.5-0.9-3.7-3.7-2.8-6.1l6.1-16.5C602.2,89.3,604.9,88,607.4,88.9z"/>
		<path class="st15" d="M638.3,100.3l16.1,5.9c2.5,0.9,3.7,3.7,2.8,6.1l-6.1,16.5c-0.9,2.5-3.7,3.7-6.1,2.8l-16.1-5.9
			c-2.5-0.9-3.7-3.7-2.8-6.1l6.1-16.5C633.1,100.7,635.8,99.4,638.3,100.3z"/>
		<path class="st15" d="M669.2,111.7l16.1,5.9c2.5,0.9,3.7,3.7,2.8,6.1l-6.1,16.5c-0.9,2.5-3.7,3.7-6.1,2.8l-16.1-5.9
			c-2.5-0.9-3.7-3.7-2.8-6.1l6.1-16.5C664,112.1,666.8,110.8,669.2,111.7z"/>
		<path class="st15" d="M700.2,123.1l16.1,5.9c2.5,0.9,3.7,3.7,2.8,6.1l-6.1,16.5c-0.9,2.5-3.7,3.7-6.1,2.8l-16.1-5.9
			c-2.5-0.9-3.7-3.7-2.8-6.1L694,126C694.9,123.5,697.7,122.2,700.2,123.1z"/>
		<path class="st15" d="M731.1,134.5l16.1,5.9c2.5,0.9,3.7,3.7,2.8,6.1l-6.1,16.5c-0.9,2.5-3.7,3.7-6.1,2.8l-16.1-5.9
			c-2.5-0.9-3.7-3.7-2.8-6.1l6.1-16.5C725.9,134.9,728.6,133.6,731.1,134.5z"/>
		<path class="st15" d="M762.1,146l29.1,10.7c2.5,0.9,3.8,3.7,2.9,6.2l-6,16.4c-0.9,2.5-3.7,3.8-6.2,2.9l-29.1-10.7
			c-2.5-0.9-3.8-3.7-2.9-6.2l6-16.4C756.8,146.3,759.6,145.1,762.1,146z"/>
		<path class="st15" d="M410.3,50.1l16.1,5.9c2.5,0.9,3.7,3.7,2.8,6.1l-6.1,16.5c-0.9,2.5-3.7,3.7-6.1,2.8l-16.1-5.9
			c-2.5-0.9-3.7-3.7-2.8-6.1l6.1-16.5C405.1,50.5,407.8,49.2,410.3,50.1z"/>
		<path class="st15" d="M441.2,61.6l16.1,5.9c2.5,0.9,3.7,3.7,2.8,6.1L454,90.2c-0.9,2.5-3.7,3.7-6.1,2.8l-16.1-5.9
			c-2.5-0.9-3.7-3.7-2.8-6.1l6.1-16.5C436,61.9,438.7,60.6,441.2,61.6z"/>
		<path class="st15" d="M472.1,73l16.1,5.9c2.5,0.9,3.7,3.7,2.8,6.1l-6.1,16.5c-0.9,2.5-3.7,3.7-6.1,2.8l-16.1-5.9
			c-2.5-0.9-3.7-3.7-2.8-6.1l6.1-16.5C466.9,73.3,469.7,72.1,472.1,73z"/>
		<path class="st15" d="M503.1,84.4l16.1,5.9c2.5,0.9,3.7,3.7,2.8,6.1l-6.1,16.5c-0.9,2.5-3.7,3.7-6.1,2.8l-16.1-5.9
			c-2.5-0.9-3.7-3.7-2.8-6.1l6.1-16.5C497.8,84.7,500.6,83.5,503.1,84.4z"/>
		<path class="st15" d="M534,95.8l16.1,5.9c2.5,0.9,3.7,3.7,2.8,6.1l-6.1,16.5c-0.9,2.5-3.7,3.7-6.1,2.8l-16.1-5.9
			c-2.5-0.9-3.7-3.7-2.8-6.1l6.1-16.5C528.8,96.2,531.5,94.9,534,95.8z"/>
		<path class="st15" d="M564.9,107.2l16.1,5.9c2.5,0.9,3.7,3.7,2.8,6.1l-6.1,16.5c-0.9,2.5-3.7,3.7-6.1,2.8l-16.1-5.9
			c-2.5-0.9-3.7-3.7-2.8-6.1l6.1-16.5C559.7,107.6,562.4,106.3,564.9,107.2z"/>
		<path class="st15" d="M595.8,118.6l16.1,5.9c2.5,0.9,3.7,3.7,2.8,6.1l-6.1,16.5c-0.9,2.5-3.7,3.7-6.1,2.8l-16.1-5.9
			c-2.5-0.9-3.7-3.7-2.8-6.1l6.1-16.5C590.6,119,593.4,117.7,595.8,118.6z"/>
		<path class="st15" d="M626.8,130l16.1,5.9c2.5,0.9,3.7,3.7,2.8,6.1l-6.1,16.5c-0.9,2.5-3.7,3.7-6.1,2.8l-16.1-5.9
			c-2.5-0.9-3.7-3.7-2.8-6.1l6.1-16.5C621.5,130.4,624.3,129.1,626.8,130z"/>
		<path class="st15" d="M657.7,141.4l16.1,5.9c2.5,0.9,3.7,3.7,2.8,6.1l-6.1,16.5c-0.9,2.5-3.7,3.7-6.1,2.8l-16.1-5.9
			c-2.5-0.9-3.7-3.7-2.8-6.1l6.1-16.5C652.5,141.8,655.2,140.5,657.7,141.4z"/>
		<path class="st15" d="M688.6,152.9l16.1,5.9c2.5,0.9,3.7,3.7,2.8,6.1l-6.1,16.5c-0.9,2.5-3.7,3.7-6.1,2.8l-16.1-5.9
			c-2.5-0.9-3.7-3.7-2.8-6.1l6.1-16.5C683.4,153.2,686.2,151.9,688.6,152.9z"/>
		<path class="st15" d="M719.6,164.3l29.1,10.7c2.5,0.9,3.8,3.7,2.9,6.2l-6,16.4c-0.9,2.5-3.7,3.8-6.2,2.9l-29.1-10.7
			c-2.5-0.9-3.8-3.7-2.9-6.2l6-16.4C714.3,164.7,717.1,163.4,719.6,164.3z"/>
		<path class="st15" d="M765.2,181.1l15.3,5.7c2.3,0.9,3.6,3.5,2.7,5.8l-6.3,17c-0.9,2.3-3.5,3.6-5.8,2.7l-15.3-5.7
			c-2.3-0.9-3.6-3.5-2.7-5.8l6.3-17C760.2,181.4,762.8,180.2,765.2,181.1z"/>
		<path class="st15" d="M506.1,138.9l160.7,59.3c2.5,0.9,3.7,3.6,2.8,6.1l-28.5,77.3c-0.9,2.5-3.6,3.7-6.1,2.8L474.3,225
			c-2.5-0.9-3.7-3.6-2.8-6.1l28.5-77.3C500.9,139.2,503.7,138,506.1,138.9z"/>
		<path class="st15" d="M468.6,229.5l79.9,29.5c0.5,0.2,0.8,0.8,0.6,1.3l-5.9,16c-0.2,0.5-0.8,0.8-1.3,0.6L462,247.4
			c-0.5-0.2-0.8-0.8-0.6-1.3l5.9-16C467.6,229.6,468.1,229.3,468.6,229.5z"/>
		<path class="st15" d="M556.5,261.9l79.9,29.5c0.5,0.2,0.8,0.8,0.6,1.3l-5.9,16c-0.2,0.5-0.8,0.8-1.3,0.6l-79.9-29.5
			c-0.5-0.2-0.8-0.8-0.6-1.3l5.9-16C555.4,262,556,261.7,556.5,261.9z"/>
	</g>
</g>
<g>
	<path class="st1" d="M460.1,503.1l-1.7,25.3l-17.5-18.3L381.2,346l0,0l-2.2-6.1l-2.8-7.7c-1-2.9,0.5-6.1,3.3-7.2l4.4-1.6l4.4-1.6
		c2.9-1,6.1,0.5,7.2,3.3l5,13.9L460.1,503.1z"/>
	<g>
		<path class="st21" d="M450.9,497.6l-1.7,25.3l-17.5-18.3l-64.7-178c-1-2.9,0.5-6.1,3.3-7.2l8.7-3.2c2.9-1,6.1,0.5,7.2,3.3
			L450.9,497.6z"/>
		<path class="st22" d="M450.9,497.6l-1.7,25.3l-8.2-22.7l-66.3-182.3l4.4-1.6c2.9-1,6.1,0.5,7.2,3.3L450.9,497.6z"/>
		<path class="st8" d="M450.9,497.6l-1.7,25.3l-17.5-18.3l-61.9-170.2c6.4-3.6,12.7-5.9,19.2-7L450.9,497.6z"/>
		<path class="st23" d="M450.9,497.6l-1.7,25.3l-8.2-22.7L379.1,330c3.3-1.2,6.6-2.1,9.9-2.7L450.9,497.6z"/>
		<path class="st24" d="M450.9,497.6l-1.7,25.3l-17.5-18.3L372,340.5c6.4-3.7,12.7-6,19.2-7L450.9,497.6z"/>
		<path class="st25" d="M450.9,497.6l-1.7,25.3l-8.2-22.7l-59.6-164.1c3.3-1.2,6.6-2.1,9.9-2.6L450.9,497.6z"/>
		<path class="st26" d="M450.9,497.6l-1.7,25.3l-17.5-18.3c2.8-1.7,6-3.2,9.3-4.4C444.3,499,447.6,498.1,450.9,497.6z"/>
		<path class="st27" d="M450.9,497.6l-1.7,25.3l-8.2-22.7C444.3,499,447.6,498.1,450.9,497.6z"/>
		<path class="st28" d="M449.8,514.5l-0.6,8.4l-5.8-6.1c0.9-0.6,2-1,3.1-1.4C447.6,515,448.7,514.7,449.8,514.5z"/>
	</g>
</g>
</svg>
