<svg id="Layer_1" data-name="Layer 1" xmlns="http://www.w3.org/2000/svg" viewBox="0 0 39.23 30.77"><defs><style>.cls-1{fill:#4c8eb4;}</style></defs><title>graph</title><polygon class="cls-1" points="8.15 13.38 2.06 13.38 2.06 22.52 8.15 19.18 8.15 13.38"/><polygon class="cls-1" points="2.06 30.77 8.15 30.77 8.15 25.45 2.06 28.79 2.06 30.77"/><polygon class="cls-1" points="18.11 7.22 12.03 7.22 12.03 17.06 18.11 13.72 18.11 7.22"/><polygon class="cls-1" points="12.03 30.77 18.11 30.77 18.11 19.99 12.03 23.33 12.03 30.77"/><polygon class="cls-1" points="22.28 30.77 28.37 30.77 28.37 14.37 22.28 17.7 22.28 30.77"/><polygon class="cls-1" points="28.37 0 22.28 0 22.28 11.44 28.37 8.1 28.37 0"/><polygon class="cls-1" points="30.84 3.11 32.89 7.04 0 25.2 0 28.34 34.16 9.48 36.29 13.16 39.23 5.23 30.84 3.11"/></svg>