<svg id="Layer_1" data-name="Layer 1" xmlns="http://www.w3.org/2000/svg" viewBox="0 0 36.16 34.54"><defs><style>.cls-1{fill:#4c8eb4;}</style></defs><title>pig</title><circle class="cls-1" cx="11.46" cy="7.99" r="1.03"/><path class="cls-1" d="M246.85,514.46a1.83,1.83,0,0,0,1.74,1.43h0.29a9.82,9.82,0,0,0,3,3.84V525h1.16c2.09,0,4.68,0,4.68-2.55v-0.17a14.77,14.77,0,0,0,6.12-.2v0.36c0,2.55,2.6,2.55,4.68,2.55h1.16v-6.08a8.78,8.78,0,0,0,2.76-6.24,8.07,8.07,0,0,0-.66-3.18,2.4,2.4,0,0,1,1.43-.15,1.4,1.4,0,0,1,.34.16,2,2,0,0,0-.78,1.11,1.06,1.06,0,0,0,.9,1.24,1.14,1.14,0,0,0,.34.06,0.74,0.74,0,0,0,.73-0.55,2.08,2.08,0,0,0-.43-1.76,1.62,1.62,0,0,1,.67-0.11,1,1,0,0,1,.88.63,0.85,0.85,0,0,1-.09.9,0.23,0.23,0,0,0,.35.29,1.32,1.32,0,0,0,.16-1.37A1.49,1.49,0,0,0,275,509a2.09,2.09,0,0,0-1,.22,1.94,1.94,0,0,0-.62-0.34,2.83,2.83,0,0,0-1.76.17,9.46,9.46,0,0,0-.58-1l-0.28-.4a11.56,11.56,0,0,0-5.07-3.78,17.64,17.64,0,0,0-5.45-1l-0.67,0a12.09,12.09,0,0,0-3.47.58,7.73,7.73,0,0,0-4.48-1.6,2.13,2.13,0,0,0-1.64.55,1.27,1.27,0,0,0-.32,1,2.8,2.8,0,0,0,.91,1.83,1.18,1.18,0,0,1,.46,1.14,9.46,9.46,0,0,0-2.28,3.41l-1.1-.16a1.27,1.27,0,0,0-1.22.43,1.31,1.31,0,0,0-.25,1.11ZM274,509.88c1,1.68,0,1.53,0,1.53C272.38,511.12,274,509.88,274,509.88Zm-24.28,1.37,0.16-.54a8.05,8.05,0,0,1,2.27-3.53l0.16-.15,0-.22a2.5,2.5,0,0,0-.78-2.48,1.46,1.46,0,0,1-.55-1,0.94,0.94,0,0,1,.65-0.11,6,6,0,0,1,3.77,1.44l0.29,0.37,0.44-.15a10.85,10.85,0,0,1,3.54-.65l0.58,0a16.58,16.58,0,0,1,5,.93,10.22,10.22,0,0,1,4.48,3.33L270,508.8a7,7,0,0,1,1.2,3.88,7.54,7.54,0,0,1-2.55,5.48l-0.21.19v5.33c-2.58,0-3.21-.26-3.21-1.23v-2.13l-0.85.27a13.46,13.46,0,0,1-7.09.24l-0.81-.19v1.81c0,1-.64,1.22-3.21,1.23v-4.61l-0.27-.2a8.46,8.46,0,0,1-3-3.87l-0.16-.44h-1.2a0.52,0.52,0,0,1-.45-0.37l-0.65-3.27Z" transform="translate(-241.84 -501.86)"/><path class="cls-1" d="M258.45,508.09c0.19-.08,4.61-1.9,7.6,1.32a0.79,0.79,0,0,0,1.16-1.07c-3.76-4-9.15-1.8-9.38-1.7A0.79,0.79,0,0,0,258.45,508.09Z" transform="translate(-241.84 -501.86)"/><path class="cls-1" d="M277,527.17h1v-1.52H244.89a3.05,3.05,0,0,0-3,3v4.66a3.05,3.05,0,0,0,3,3H278v-1.52h-1a1.53,1.53,0,0,1-1.53-1.52v-4.66A1.53,1.53,0,0,1,277,527.17Zm-31.9,7.71h-0.24a1.53,1.53,0,0,1-1.52-1.52v-4.66a1.53,1.53,0,0,1,1.52-1.52h0.25a3,3,0,0,0-.42,1.54v4.65A3,3,0,0,0,245.14,534.88Zm11.71,0h-9.1a1.52,1.52,0,0,1-1.5-1.52V528.7a1.49,1.49,0,0,1,1.3-1.54h9.3a3,3,0,0,0-.42,1.54v4.65A3,3,0,0,0,256.84,534.88Zm3.11,0h-0.5a1.52,1.52,0,0,1-1.5-1.52V528.7a1.39,1.39,0,0,1,1.16-1.54H260a3,3,0,0,0-.41,1.52v4.66A3,3,0,0,0,260,534.88Zm14-5V532h-7.88v1.27H274v0a3,3,0,0,0,.41,1.52h-11.8a1.53,1.53,0,0,1-1.53-1.52v-4.66a1.53,1.53,0,0,1,1.53-1.52h11.8a3,3,0,0,0-.41,1.44h-7.88v1.27H274Z" transform="translate(-241.84 -501.86)"/><rect class="cls-1" x="5.23" y="28.06" width="8.7" height="2.1"/></svg>